<?xml version="1.0" standalone="no"?>
<!DOCTYPE svg PUBLIC "-//W3C//DTD SVG 20010904//EN"
 "http://www.w3.org/TR/2001/REC-SVG-20010904/DTD/svg10.dtd">
<svg version="1.0" xmlns="http://www.w3.org/2000/svg"
 width="40.000000pt" height="90.000000pt" viewBox="0 0 500.000000 500.000000"
 preserveAspectRatio="xMidYMid meet">

<g transform="translate(0.000000,500.000000) scale(0.100000,-0.100000)"
fill="#000000" stroke="none">
<path d="M1926 2994 c-34 -34 -6 -104 41 -104 21 0 53 38 53 63 0 48 -61 74
-94 41z"/>
<path d="M2520 2990 c-27 -27 -25 -55 7 -79 58 -47 126 26 73 79 -11 11 -29
20 -40 20 -11 0 -29 -9 -40 -20z"/>
<path d="M1490 2920 l0 -40 55 0 55 0 0 -165 0 -165 50 0 50 0 0 165 0 165 55
0 55 0 0 40 0 40 -160 0 -160 0 0 -40z"/>
<path d="M2205 2869 c-65 -18 -101 -80 -74 -128 14 -25 46 -41 127 -61 31 -8
42 -16 42 -30 0 -26 -36 -35 -65 -16 -21 14 -115 23 -115 12 0 -3 4 -16 10
-30 30 -81 201 -90 254 -14 40 56 7 109 -82 133 -31 9 -63 18 -70 21 -8 2 -12
12 -10 21 4 23 51 29 68 9 8 -11 29 -16 62 -16 47 0 49 1 43 23 -21 67 -105
101 -190 76z"/>
<path d="M2827 2865 c-78 -27 -113 -87 -105 -175 9 -89 70 -140 170 -140 85 0
140 44 159 127 19 85 -33 171 -117 192 -53 14 -60 13 -107 -4z m105 -92 c26
-23 25 -96 -2 -123 -44 -44 -110 -7 -110 62 0 66 66 103 112 61z"/>
<path d="M3308 2862 c-30 -16 -38 -17 -38 -6 0 10 -14 14 -50 14 l-50 0 0
-160 0 -160 50 0 50 0 0 110 c0 119 5 130 64 130 43 0 56 -33 56 -142 l0 -98
50 0 50 0 0 108 c0 115 -19 180 -57 200 -41 22 -87 23 -125 4z"/>
<path d="M1910 2710 l0 -160 50 0 50 0 0 160 0 160 -50 0 -50 0 0 -160z"/>
<path d="M2510 2710 l0 -160 50 0 50 0 0 160 0 160 -50 0 -50 0 0 -160z"/>
</g>
</svg>
